<?xml version="1.0" encoding="utf-8"?>
<svg xmlns="http://www.w3.org/2000/svg" viewBox="8 8 496 483.607">
  <path d="M 252.8 8 C 114.1 8 8 113.3 8 252 C 8 362.9 77.8 457.8 177.5 491.2 C 190.3 493.5 194.8 485.6 194.8 479.1 C 194.8 472.9 194.5 438.7 194.5 417.7 C 194.5 417.7 124.5 432.7 109.8 387.9 C 109.8 387.9 98.4 358.8 82 351.3 C 82 351.3 59.1 335.6 83.6 335.9 C 83.6 335.9 108.5 337.9 122.2 361.7 C 144.1 400.3 180.8 389.2 195.1 382.6 C 197.4 366.6 203.9 355.5 211.1 348.9 C 155.2 342.7 98.8 334.6 98.8 238.4 C 98.8 210.9 106.4 197.1 122.4 179.5 C 119.8 173 111.3 146.2 125 111.6 C 145.9 105.1 194 138.6 194 138.6 C 214 133 235.5 130.1 256.8 130.1 C 278.1 130.1 299.6 133 319.6 138.6 C 319.6 138.6 367.7 105 388.6 111.6 C 402.3 146.3 393.8 173 391.2 179.5 C 407.2 197.2 417 211 417 238.4 C 417 334.9 358.1 342.6 302.2 348.9 C 311.4 356.8 319.2 371.8 319.2 395.3 C 319.2 429 318.9 470.7 318.9 478.9 C 318.9 485.4 323.5 493.3 336.2 491 C 436.2 457.8 504 362.9 504 252 C 504 113.3 391.5 8 252.8 8 Z"/>
</svg>