<?xml version="1.0" encoding="utf-8"?>
<svg xmlns="http://www.w3.org/2000/svg" viewBox="0 0 512 512">
  <path d="M 488 319.97 L 344 319.97 C 334.3 319.97 325.5 325.77 321.8 334.77 C 318.1 343.77 320.1 354.07 327 360.97 L 373.7 407.67 C 298.4 466.27 189.4 460.97 120.2 391.77 C 45.2 316.77 45.2 195.27 120.2 120.27 C 195.2 45.27 316.7 45.27 391.7 120.27 C 399.9 128.47 407.2 137.17 413.6 146.37 C 423.7 160.87 443.7 164.37 458.2 154.27 C 472.7 144.17 476.2 124.17 466.1 109.67 C 457.6 97.47 447.9 85.87 437 74.97 C 337 -25.03 174.9 -25.03 75 74.97 C -24.9 174.97 -25 336.97 75 436.97 C 169.3 531.27 318.7 536.57 419.3 453.17 L 471 504.97 C 477.9 511.87 488.2 513.87 497.2 510.17 C 506.2 506.47 512 497.67 512 487.97 L 512 343.97 C 512 330.67 501.3 319.97 488 319.97 Z" style="transform-box: fill-box; transform-origin: 50% 50%;" transform="matrix(-1, 0, 0, -1, -0.000017, -0.000035)"/>
</svg>